<?xml version="1.0"?>
<svg xmlns="http://www.w3.org/2000/svg" xmlns:xlink="http://www.w3.org/1999/xlink" xmlns:svgjs="http://svgjs.com/svgjs" version="1.1" width="512" height="512" x="0" y="0" viewBox="0 0 512 512" style="enable-background:new 0 0 512 512" xml:space="preserve" class=""><g>
<g xmlns="http://www.w3.org/2000/svg">
	<g>
		<g>
			<path d="M504.5,57.233L454.767,7.5c-4.79-4.818-11.31-7.519-18.104-7.5H34.133C15.291,0.022,0.022,15.291,0,34.133v443.733     C0.022,496.709,15.291,511.979,34.133,512h443.733c18.842-0.022,34.112-15.291,34.133-34.133V75.338     C512.019,68.543,509.318,62.024,504.5,57.233z M298.667,17.067H332.8v128c-0.006,4.71-3.823,8.527-8.533,8.533H307.2     c-4.71-0.006-8.527-3.823-8.533-8.533V17.067z M110.933,17.067H281.6v128c0.015,14.132,11.468,25.585,25.6,25.6h17.067     c14.132-0.015,25.585-11.468,25.6-25.6v-128h42.667V179.2c-0.006,4.71-3.823,8.527-8.533,8.533H119.467     c-4.71-0.006-8.527-3.823-8.533-8.533V17.067z M452.267,494.933H59.733v-230.4c0.015-14.132,11.468-25.585,25.6-25.6h341.333     c14.132,0.015,25.585,11.468,25.6,25.6V494.933z M494.933,477.867c-0.009,9.422-7.645,17.057-17.067,17.067h-8.533v-230.4     c-0.028-23.553-19.114-42.639-42.667-42.667H85.333c-23.553,0.028-42.639,19.114-42.667,42.667v230.4h-8.533     c-9.422-0.009-17.057-7.645-17.067-17.067V34.133c0.009-9.422,7.645-17.057,17.067-17.067h59.733V179.2     c0.015,14.132,11.468,25.585,25.6,25.6H384c14.132-0.015,25.585-11.468,25.6-25.6V17.067h27.063     c2.266-0.006,4.44,0.894,6.038,2.5L492.433,69.3c1.606,1.598,2.506,3.772,2.5,6.037V477.867z" fill="#ffffff" data-original="#000000" style="" class=""/>
			<path d="M341.333,299.17v-0.503c-0.015-14.132-11.468-25.585-25.6-25.6h-25.6c-14.132,0.015-25.585,11.468-25.6,25.6h-17.067     c-0.015-14.132-11.468-25.585-25.6-25.6h-25.6c-14.132,0.015-25.585,11.468-25.6,25.6v0.503     c-36.573,4.083-65.107,33.54-68.024,70.224c-2.917,36.684,20.602,70.28,56.07,80.093s72.91-6.919,89.262-39.887h16.05     c16.352,32.968,53.794,49.7,89.263,39.888s58.988-43.409,56.071-80.093S377.907,303.253,341.333,299.17z M290.133,290.133h25.6     c4.71,0.006,8.527,3.823,8.533,8.533H281.6C281.606,293.957,285.423,290.14,290.133,290.133z M196.267,290.133h25.6     c4.71,0.006,8.527,3.823,8.533,8.533h-42.667C187.739,293.957,191.556,290.14,196.267,290.133z M332.8,435.2     c-24.353,0.055-46.28-14.737-55.35-37.337c-1.305-3.221-4.433-5.329-7.908-5.329h-27.083c-3.475,0-6.604,2.108-7.908,5.329     c-11.268,27.84-41.457,42.981-70.509,35.364s-47.927-35.625-44.084-65.412s29.209-52.086,59.242-52.081h153.6     c32.99,0,59.733,26.744,59.733,59.733S365.79,435.2,332.8,435.2z" fill="#ffffff" data-original="#000000" style="" class=""/>
			<path d="M204.8,366.933h-17.067v-17.067c0-4.713-3.82-8.533-8.533-8.533s-8.533,3.82-8.533,8.533v17.067H153.6     c-4.713,0-8.533,3.82-8.533,8.533S148.887,384,153.6,384h17.067v17.067c0,4.713,3.82,8.533,8.533,8.533s8.533-3.82,8.533-8.533     V384H204.8c4.713,0,8.533-3.82,8.533-8.533S209.513,366.933,204.8,366.933z" fill="#ffffff" data-original="#000000" style="" class=""/>
			<path d="M313.233,365.167c-1.6-1.601-3.77-2.5-6.033-2.5s-4.434,0.899-6.033,2.5l-8.533,8.533     c-2.178,2.151-3.037,5.304-2.251,8.262c0.786,2.958,3.097,5.269,6.055,6.055s6.111-0.073,8.262-2.251l8.533-8.533     c1.601-1.6,2.5-3.77,2.5-6.033S314.834,366.767,313.233,365.167z" fill="#ffffff" data-original="#000000" style="" class=""/>
			<path d="M347.366,335.3c-1.6-1.601-3.77-2.5-6.033-2.5s-4.433,0.899-6.033,2.5l-8.533,8.533     c-2.178,2.151-3.037,5.304-2.251,8.262c0.786,2.958,3.097,5.269,6.055,6.055c2.958,0.786,6.111-0.073,8.262-2.251l8.533-8.533     c1.601-1.6,2.5-3.77,2.5-6.033C349.866,339.07,348.967,336.9,347.366,335.3z" fill="#ffffff" data-original="#000000" style="" class=""/>
			<path d="M326.767,395.034l-8.533,8.533c-2.188,2.149-3.055,5.307-2.27,8.271c0.785,2.965,3.1,5.28,6.065,6.065     c2.965,0.785,6.122-0.082,8.271-2.27l8.533-8.533c3.281-3.341,3.256-8.701-0.054-12.012S330.108,391.753,326.767,395.034z" fill="#ffffff" data-original="#000000" style="" class=""/>
			<path d="M360.9,365.167l-8.533,8.533c-2.188,2.149-3.055,5.307-2.27,8.271c0.785,2.965,3.1,5.28,6.065,6.065     c2.965,0.785,6.122-0.082,8.271-2.27l8.533-8.533c3.281-3.341,3.256-8.701-0.054-12.012     C369.601,361.911,364.241,361.886,360.9,365.167z" fill="#ffffff" data-original="#000000" style="" class=""/>
		</g>
	</g>
</g>
<g xmlns="http://www.w3.org/2000/svg">
</g>
<g xmlns="http://www.w3.org/2000/svg">
</g>
<g xmlns="http://www.w3.org/2000/svg">
</g>
<g xmlns="http://www.w3.org/2000/svg">
</g>
<g xmlns="http://www.w3.org/2000/svg">
</g>
<g xmlns="http://www.w3.org/2000/svg">
</g>
<g xmlns="http://www.w3.org/2000/svg">
</g>
<g xmlns="http://www.w3.org/2000/svg">
</g>
<g xmlns="http://www.w3.org/2000/svg">
</g>
<g xmlns="http://www.w3.org/2000/svg">
</g>
<g xmlns="http://www.w3.org/2000/svg">
</g>
<g xmlns="http://www.w3.org/2000/svg">
</g>
<g xmlns="http://www.w3.org/2000/svg">
</g>
<g xmlns="http://www.w3.org/2000/svg">
</g>
<g xmlns="http://www.w3.org/2000/svg">
</g>
</g></svg>
